<?xml version="1.0" encoding="utf-8"?>
<!-- Generator: Adobe Illustrator 24.0.0, SVG Export Plug-In . SVG Version: 6.00 Build 0)  -->
<svg version="1.1" id="Layer_1" xmlns="http://www.w3.org/2000/svg" xmlns:xlink="http://www.w3.org/1999/xlink" x="0px" y="0px"
	 viewBox="0 0 508 64" style="enable-background:new 0 0 508 64;" xml:space="preserve">
<style type="text/css">
	.st0{fill-rule:evenodd;clip-rule:evenodd;fill:#FFFFFF;}
	.st1{fill:#FFFFFF;}
	.st2{fill-rule:evenodd;clip-rule:evenodd;fill:#00D36E;}
</style>
<path class="st0" d="M271,36h-6.2l-1.2,2.9h-2.4l5.6-12.4h2.3l5.6,12.4h-2.4L271,36z M270.3,34.2l-2.3-5.4l-2.3,5.4H270.3z
	 M276.1,25.7h2.2v13.2h-2.2V25.7z M281.2,25.7h2.2v13.2h-2.2V25.7z M285.8,33h4.9v1.8h-4.9V33z M293.2,29.4h2.2v9.5h-2.2V29.4z
	 M294.3,27.8c-0.4,0-0.7-0.1-1-0.4c-0.3-0.3-0.4-0.6-0.4-1c0-0.4,0.1-0.7,0.4-1c0.3-0.3,0.6-0.4,1-0.4s0.7,0.1,1,0.4
	c0.3,0.2,0.4,0.5,0.4,0.9c0,0.4-0.1,0.7-0.4,1C295,27.7,294.7,27.8,294.3,27.8z M303.7,29.3c1.2,0,2.2,0.3,2.9,1
	c0.7,0.7,1.1,1.7,1.1,3.1v5.4h-2.2v-5.2c0-0.8-0.2-1.5-0.6-1.9c-0.4-0.4-0.9-0.6-1.7-0.6c-0.8,0-1.5,0.2-1.9,0.7
	c-0.5,0.5-0.7,1.2-0.7,2.1v4.8h-2.2v-9.5h2.1v1.2c0.4-0.4,0.8-0.8,1.4-1C302.4,29.4,303,29.3,303.7,29.3L303.7,29.3z M310,33h4.9
	v1.8H310V33z M323.3,39.1c-1.3,0-2.4-0.3-3.4-0.8c-1-0.6-1.8-1.3-2.4-2.3c-0.6-1-0.9-2.1-0.9-3.3c0-1.2,0.3-2.3,0.9-3.3
	c0.6-1,1.4-1.7,2.4-2.3c1-0.6,2.2-0.8,3.4-0.8c1.3,0,2.4,0.3,3.4,0.8c1,0.6,1.8,1.3,2.4,2.3c0.6,1,0.9,2.1,0.9,3.3
	c0,1.2-0.3,2.3-0.9,3.3c-0.6,1-1.4,1.7-2.4,2.3C325.7,38.8,324.6,39.1,323.3,39.1z M323.3,37c0.8,0,1.6-0.2,2.2-0.6
	c0.7-0.4,1.2-0.9,1.6-1.6c0.4-0.7,0.6-1.4,0.6-2.2c0-0.8-0.2-1.6-0.6-2.2c-0.4-0.7-0.9-1.2-1.6-1.6c-0.7-0.4-1.4-0.6-2.2-0.6
	c-0.8,0-1.6,0.2-2.2,0.6c-0.7,0.4-1.2,0.9-1.6,1.6c-0.4,0.7-0.6,1.4-0.6,2.2c0,0.8,0.2,1.6,0.6,2.2c0.4,0.7,0.9,1.2,1.6,1.6
	C321.8,36.8,322.5,37,323.3,37z M337.7,29.3c1.2,0,2.2,0.3,2.9,1c0.7,0.7,1.1,1.7,1.1,3.1v5.4h-2.2v-5.2c0-0.8-0.2-1.5-0.6-1.9
	c-0.4-0.4-0.9-0.6-1.7-0.6c-0.8,0-1.5,0.2-1.9,0.7c-0.5,0.5-0.7,1.2-0.7,2.1v4.8h-2.2v-9.5h2.1v1.2c0.4-0.4,0.8-0.8,1.4-1
	C336.3,29.4,337,29.3,337.7,29.3L337.7,29.3z M353.4,34.2c0,0.2,0,0.4,0,0.7h-7.4c0.1,0.7,0.5,1.3,1,1.7c0.6,0.4,1.2,0.6,2.1,0.6
	c1,0,1.9-0.3,2.6-1l1.2,1.4c-0.4,0.5-1,0.9-1.6,1.2c-0.7,0.3-1.4,0.4-2.2,0.4c-1,0-2-0.2-2.8-0.6c-0.8-0.4-1.4-1-1.8-1.7
	c-0.4-0.7-0.6-1.6-0.6-2.5c0-0.9,0.2-1.8,0.6-2.5c0.4-0.7,1-1.3,1.8-1.7c0.7-0.4,1.6-0.6,2.5-0.6c0.9,0,1.8,0.2,2.5,0.6
	c0.7,0.4,1.3,1,1.7,1.7C353.2,32.4,353.4,33.2,353.4,34.2L353.4,34.2z M348.6,31.1c-0.7,0-1.3,0.2-1.8,0.6c-0.5,0.4-0.8,1-0.9,1.7
	h5.4c-0.1-0.7-0.4-1.2-0.9-1.7C349.9,31.3,349.3,31.1,348.6,31.1z M366.4,39.1c-1.3,0-2.4-0.3-3.4-0.8c-1-0.6-1.8-1.3-2.4-2.3
	c-0.6-1-0.9-2.1-0.9-3.3c0-1.2,0.3-2.3,0.9-3.3c0.6-1,1.4-1.7,2.4-2.3c1-0.6,2.1-0.8,3.4-0.8c1,0,1.9,0.2,2.8,0.5s1.6,0.9,2.1,1.5
	l-1.5,1.4c-0.9-1-2-1.5-3.3-1.5c-0.9,0-1.6,0.2-2.3,0.6c-0.7,0.4-1.2,0.9-1.6,1.6c-0.4,0.7-0.6,1.4-0.6,2.3c0,0.8,0.2,1.6,0.6,2.3
	c0.4,0.7,0.9,1.2,1.6,1.6c0.7,0.4,1.4,0.6,2.3,0.6c1.3,0,2.4-0.5,3.3-1.5l1.5,1.4c-0.6,0.7-1.3,1.2-2.1,1.5
	C368.3,38.9,367.4,39.1,366.4,39.1z M375.4,30.8c0.6-1,1.8-1.5,3.4-1.5v2.1c-0.2,0-0.4-0.1-0.5-0.1c-0.9,0-1.5,0.3-2,0.8
	c-0.5,0.5-0.7,1.2-0.7,2.2v4.6h-2.2v-9.5h2.1V30.8z M389.7,29.4l-4.4,10.3c-0.4,1-0.9,1.8-1.5,2.2c-0.6,0.4-1.3,0.6-2.1,0.6
	c-0.5,0-0.9-0.1-1.4-0.2c-0.5-0.2-0.8-0.4-1.1-0.6l0.9-1.6c0.2,0.2,0.5,0.4,0.8,0.5c0.3,0.1,0.6,0.2,0.9,0.2c0.4,0,0.7-0.1,1-0.3
	c0.3-0.2,0.5-0.5,0.7-1l0.2-0.4l-4.1-9.5h2.3l3,7l3-7H389.7z M396.3,29.3c0.9,0,1.7,0.2,2.5,0.6s1.3,1,1.7,1.7
	c0.4,0.7,0.6,1.6,0.6,2.5c0,1-0.2,1.8-0.6,2.5c-0.4,0.7-1,1.3-1.7,1.7c-0.7,0.4-1.6,0.6-2.5,0.6c-1.3,0-2.3-0.4-3-1.3v4.6H391V29.4
	h2.1v1.2c0.4-0.4,0.8-0.8,1.4-1C395,29.4,395.6,29.3,396.3,29.3L396.3,29.3z M396,37.1c0.8,0,1.5-0.3,2-0.8c0.5-0.5,0.8-1.3,0.8-2.1
	c0-0.9-0.3-1.6-0.8-2.1c-0.5-0.5-1.2-0.8-2-0.8c-0.5,0-1,0.1-1.4,0.4c-0.4,0.2-0.8,0.6-1,1c-0.2,0.5-0.4,1-0.4,1.6s0.1,1.1,0.4,1.6
	c0.2,0.5,0.6,0.8,1,1C395,37,395.5,37.1,396,37.1z M408.9,38.4c-0.3,0.2-0.6,0.4-1,0.5c-0.4,0.1-0.8,0.2-1.2,0.2
	c-1,0-1.8-0.3-2.4-0.8c-0.6-0.5-0.9-1.3-0.9-2.4v-4.6H402v-1.8h1.6v-2.2h2.2v2.2h2.5v1.8h-2.5v4.5c0,0.5,0.1,0.8,0.3,1.1
	c0.2,0.2,0.6,0.4,1,0.4c0.5,0,0.9-0.1,1.2-0.4L408.9,38.4z M415,39c-1,0-1.8-0.2-2.6-0.6c-0.8-0.4-1.4-1-1.8-1.7
	c-0.4-0.7-0.6-1.6-0.6-2.5c0-0.9,0.2-1.8,0.6-2.5c0.4-0.7,1-1.3,1.8-1.7c0.8-0.4,1.6-0.6,2.6-0.6c1,0,1.8,0.2,2.6,0.6
	c0.8,0.4,1.4,1,1.8,1.7c0.4,0.7,0.6,1.6,0.6,2.5c0,0.9-0.2,1.8-0.6,2.5c-0.4,0.7-1,1.3-1.8,1.7C416.9,38.8,416,39,415,39z M415,37.1
	c0.8,0,1.5-0.3,2-0.8c0.5-0.5,0.8-1.3,0.8-2.1c0-0.9-0.3-1.6-0.8-2.1c-0.5-0.5-1.2-0.8-2-0.8s-1.5,0.3-2,0.8
	c-0.5,0.5-0.8,1.3-0.8,2.1c0,0.9,0.3,1.6,0.8,2.1C413.5,36.8,414.2,37.1,415,37.1z M432.4,26.4c1.1,0,2,0.2,2.8,0.5
	c0.8,0.4,1.4,0.9,1.8,1.5c0.4,0.7,0.6,1.5,0.6,2.4c0,0.9-0.2,1.7-0.6,2.4c-0.4,0.7-1,1.2-1.8,1.5c-0.8,0.4-1.7,0.5-2.8,0.5h-2.8v3.6
	h-2.3V26.4L432.4,26.4z M432.3,33.3c1,0,1.8-0.2,2.3-0.6c0.5-0.4,0.8-1,0.8-1.8c0-0.8-0.3-1.4-0.8-1.8c-0.5-0.4-1.3-0.6-2.3-0.6
	h-2.7v4.9H432.3z M440,25.7h2.2v13.2H440V25.7z M448.8,29.3c1.4,0,2.5,0.3,3.2,1c0.7,0.7,1.1,1.7,1.1,3v5.6H451v-1.2
	c-0.3,0.4-0.7,0.7-1.2,1c-0.5,0.2-1.1,0.3-1.8,0.3c-0.7,0-1.3-0.1-1.9-0.4c-0.5-0.2-0.9-0.6-1.2-1c-0.3-0.4-0.4-0.9-0.4-1.5
	c0-0.9,0.3-1.5,1-2.1c0.6-0.5,1.6-0.8,3-0.8h2.5v-0.1c0-0.7-0.2-1.2-0.6-1.5c-0.4-0.4-1-0.5-1.8-0.5c-0.5,0-1.1,0.1-1.6,0.2
	c-0.5,0.2-1,0.4-1.3,0.7l-0.9-1.6c0.5-0.4,1.1-0.7,1.8-0.9C447.3,29.4,448,29.3,448.8,29.3L448.8,29.3z M448.5,37.4
	c0.6,0,1.1-0.1,1.5-0.4c0.4-0.3,0.7-0.6,0.9-1.1v-1.1h-2.3c-1.3,0-1.9,0.4-1.9,1.3c0,0.4,0.2,0.7,0.5,1
	C447.5,37.3,447.9,37.4,448.5,37.4z M461.6,38.4c-0.3,0.2-0.6,0.4-1,0.5c-0.4,0.1-0.8,0.2-1.2,0.2c-1,0-1.8-0.3-2.4-0.8
	c-0.6-0.5-0.9-1.3-0.9-2.4v-4.6h-1.6v-1.8h1.6v-2.2h2.2v2.2h2.5v1.8h-2.5v4.5c0,0.5,0.1,0.8,0.3,1.1c0.2,0.2,0.6,0.4,1,0.4
	c0.5,0,0.9-0.1,1.2-0.4L461.6,38.4z M467.3,27.4c-0.9,0-1.4,0.5-1.4,1.5v0.6h2.6v1.8H466v7.6h-2.2v-7.6h-1.6v-1.8h1.6v-0.6
	c0-1,0.3-1.8,0.9-2.4c0.6-0.6,1.4-0.9,2.5-0.9c0.9,0,1.5,0.2,2,0.5l-0.6,1.7C468.2,27.5,467.8,27.4,467.3,27.4L467.3,27.4z
	 M474.3,39c-1,0-1.8-0.2-2.6-0.6c-0.8-0.4-1.4-1-1.8-1.7c-0.4-0.7-0.6-1.6-0.6-2.5c0-0.9,0.2-1.8,0.6-2.5c0.4-0.7,1-1.3,1.8-1.7
	c0.8-0.4,1.6-0.6,2.6-0.6c1,0,1.8,0.2,2.6,0.6c0.8,0.4,1.4,1,1.8,1.7c0.4,0.7,0.6,1.6,0.6,2.5c0,0.9-0.2,1.8-0.6,2.5
	c-0.4,0.7-1,1.3-1.8,1.7C476.1,38.8,475.3,39,474.3,39z M474.3,37.1c0.8,0,1.5-0.3,2-0.8c0.5-0.5,0.8-1.3,0.8-2.1
	c0-0.9-0.3-1.6-0.8-2.1c-0.5-0.5-1.2-0.8-2-0.8c-0.8,0-1.5,0.3-2,0.8c-0.5,0.5-0.8,1.3-0.8,2.1c0,0.9,0.3,1.6,0.8,2.1
	C472.8,36.8,473.5,37.1,474.3,37.1z M483.6,30.8c0.6-1,1.8-1.5,3.4-1.5v2.1c-0.2,0-0.4-0.1-0.5-0.1c-0.9,0-1.5,0.3-2,0.8
	c-0.5,0.5-0.7,1.2-0.7,2.2v4.6h-2.2v-9.5h2.1V30.8z M500.9,29.3c1.2,0,2.1,0.3,2.8,1c0.7,0.7,1,1.7,1,3.1v5.4h-2.2v-5.2
	c0-0.8-0.2-1.5-0.6-1.9c-0.4-0.4-0.9-0.6-1.6-0.6c-0.7,0-1.3,0.2-1.8,0.7c-0.5,0.5-0.7,1.2-0.7,2.1v4.8h-2.2v-5.2
	c0-0.8-0.2-1.5-0.6-1.9c-0.4-0.4-0.9-0.6-1.6-0.6c-0.8,0-1.4,0.2-1.8,0.7c-0.4,0.5-0.7,1.2-0.7,2.1v4.8h-2.2v-9.5h2.1v1.2
	c0.4-0.4,0.8-0.8,1.3-1c0.5-0.2,1.1-0.3,1.8-0.3c0.7,0,1.3,0.1,1.9,0.4c0.6,0.3,1,0.7,1.3,1.2c0.4-0.5,0.9-0.9,1.5-1.2
	C499.5,29.4,500.2,29.3,500.9,29.3L500.9,29.3z"/>
<rect x="245.1" y="12.1" class="st1" width="1.2" height="40.2"/>
<path class="st2" d="M30.5,6.9L5.5,32h25.1L55.6,6.9H30.5z"/>
<path class="st2" d="M30.5,32L5.5,57.1h25.1L55.6,32H30.5z"/>
<g>
	<polygon class="st1" points="78.3,31.1 78.3,21.2 74.2,21.2 57.4,45.1 62.8,45.1 73.8,29.1 73.9,29.1 73.9,45.1 84.8,29.1 
		84.9,29.1 84.9,45.1 89.3,45.1 89.3,21.2 85.3,21.2 	"/>
	<polygon class="st1" points="105.4,21.2 101.3,21.2 101.3,25.4 105.4,25.4 105.4,41 101.3,41 101.3,45.1 105.4,45.1 109.5,45.1 
		109.8,45.1 113.9,45.1 113.9,41 109.8,41 109.8,25.4 113.9,25.4 113.9,21.2 109.8,21.2 	"/>
	<polygon class="st1" points="136.7,21.2 136.7,25.3 140.9,25.3 140.9,38.6 140.8,38.6 130.9,21.2 125.8,21.2 125.8,45.1 
		130.2,45.1 130.2,27.7 130.3,27.7 140.3,45.1 145.2,45.1 145.2,25.3 145.2,21.2 140.9,21.2 	"/>
	<polygon class="st1" points="161.3,21.2 157.2,21.2 157.2,25.4 161.3,25.4 161.3,41 157.2,41 157.2,45.1 161.3,45.1 165.4,45.1 
		165.7,45.1 169.8,45.1 169.8,41 165.7,41 165.7,25.4 169.8,25.4 169.8,21.2 165.7,21.2 	"/>
	<polygon class="st1" points="192.7,21.2 192.7,25.3 196.8,25.3 196.8,38.6 196.7,38.6 186.8,21.2 181.7,21.2 181.7,45.1 
		186.2,45.1 186.2,27.7 186.3,27.7 196.3,45.1 201.2,45.1 201.2,25.3 201.2,21.2 196.8,21.2 	"/>
	<path class="st1" d="M232.7,32.9h-10v4h7.2l-2.9,4.1c-0.3,0-0.5,0.1-0.8,0.1s-0.5,0-0.8,0c-1.7,0-3.2-0.4-4.5-1.3
		c-1.3-0.8-2.3-2-3-3.6c-0.2-0.5-0.4-1-0.5-1.5c-0.1-0.5-0.2-1-0.2-1.6c0-1.1,0.2-2.2,0.6-3.1c0.4-1,1-1.8,1.7-2.6
		c0.7-0.7,1.6-1.3,2.5-1.7c1-0.4,2-0.6,3.1-0.6c1.2,0,2.4,0.3,3.5,0.8c1.1,0.6,2,1.4,2.7,2.4h4.4h0.7c-0.1-0.2-0.2-0.4-0.3-0.6
		c-0.4-1-1.1-1.9-1.9-2.7c-0.8-0.8-1.7-1.5-2.7-2.1c-1-0.6-2-1-3.1-1.3c-1.1-0.3-2.2-0.5-3.3-0.5c-1.7,0-3.2,0.3-4.7,0.9
		c-1.5,0.6-2.8,1.5-3.9,2.5c-1.1,1.1-2,2.3-2.7,3.8c-0.7,1.5-1,3-1,4.7c0,1.6,0.3,3.1,0.9,4.5c0.6,1.4,1.4,2.6,2.4,3.7
		c1,1.1,2.2,1.9,3.5,2.6s2.8,1.1,4.3,1.2c0.4,0.1,0.8,0.1,1.3,0.1c0.7,0,1.4-0.1,2.2-0.2c0.7-0.1,1.4-0.3,2.1-0.6l7.8-11.4H232.7z"
		/>
</g>
</svg>
