<svg fill="none" height="52" viewBox="0 0 227 52" width="227" xmlns="http://www.w3.org/2000/svg" xmlns:xlink="http://www.w3.org/1999/xlink"><clipPath id="a"><path d="m0 0h226.292v51.76h-226.292z"/></clipPath><clipPath id="b"><path d="m0 6.46997h226.292v38.82003h-226.292z"/></clipPath><g clip-path="url(#a)"><g clip-path="url(#b)"><path clip-rule="evenodd" d="m33.2564 29.6673c-.6769.428-1.4742.481-2.0802.1392-.7697-.4346-1.193-1.4525-1.193-2.868v-4.2351c0-2.0452-.8085-3.5005-2.1606-3.8934-2.2913-.6675-4.0146 2.136-4.6622 3.1889l-4.0411 6.5521v-8.0083c-.0454-1.8425-.6438-2.9446-1.78-3.277-.7518-.2196-1.8766-.1316-2.9693 1.5405l-9.05355 14.5376c-1.21206-2.301-1.84391-4.8631-1.84064-7.4638 0-8.7573 7.01789-15.8812 15.64349-15.8812s15.6426 7.1239 15.6426 15.8812c0 .0151.0038.0284.0047.0426 0 .0151-.0028.0284-.0019.0435.0815 1.6958-.4677 3.045-1.5083 3.7021zm4.9813-3.7864v-.0009-.0436l-.0009-.0435c-.0483-10.6651-8.6048-19.32293-19.1184-19.32293-10.54107 0-19.1184 8.70703-19.1184 19.41003 0 10.702 8.57733 19.41 19.1193 19.41 4.8374 0 9.4541-1.8388 12.9981-5.1763.7044-.6628.7461-1.7791.0928-2.493-.1538-.1696-.3398-.3068-.5473-.4035-.2074-.0968-.4321-.1512-.6609-.16-.2287-.0088-.4569.0281-.6712.1086s-.4103.203-.5767.3602c-2.8726 2.7202-6.6786 4.2359-10.6348 4.2351-4.6186 0-8.7742-2.0442-11.64029-5.2861l8.16449-13.1098v6.0436c0 2.903 1.1258 3.8413 2.0698 4.1159.9449.2746 2.3888.0871 3.9047-2.3747l4.4908-7.2801c.1439-.2349.2765-.4375.3977-.6126v3.6812c0 2.7136 1.0869 4.8838 2.9816 5.9527 1.708.9639 3.8554.8768 5.6052-.2272 2.1209-1.3398 3.2637-3.8081 3.1444-6.7831zm26.6182-6.6316c.4592.2793.8569.9005.8569 1.46 0 .9005-.765 1.6456-1.6219 1.6456-.214 0-.428-.0615-.6117-.124-1.0102-.7452-2.2951-1.2422-3.6415-1.2422-3.1813 0-5.3846 2.6085-5.3846 5.8381 0 3.2306 2.2033 5.8079 5.3846 5.8079 1.5907 0 2.9986-.6524 4.0695-1.6456.2767-.1989.608-.3074.9487-.3106.8569 0 1.5301.6827 1.5301 1.5528 0 .5586-.3371 1.0557-.765 1.335-1.5301 1.3048-3.6103 2.174-5.752 2.174-4.8951 0-8.8737-4.0373-8.8737-9.0063 0-4.9689 3.9776-9.0062 8.8737-9.0062 1.8359 0 3.579.5586 4.9869 1.5215zm8.9513 3.758c3.3348 0 6.1497 2.8263 6.1497 6.304 0 3.4786-2.8149 6.429-6.1497 6.429-3.4881 0-6.3948-2.9504-6.3948-6.429 0-3.4777 2.9067-6.304 6.3948-6.304zm-.0312 9.6274c1.4695 0 2.7231-1.3976 2.7231-3.2922 0-1.8936-1.2536-3.0743-2.7231-3.0743-1.5907 0-2.9068 1.1494-2.9068 3.0743 0 1.8946 1.3161 3.2922 2.9068 3.2922zm8.2781 1.1797v-8.8813c0-.9629.7651-1.7705 1.7138-1.7705s1.744.8076 1.744 1.7705v8.8813c0 .9629-.7953 1.7706-1.744 1.7706s-1.7138-.8077-1.7138-1.7706zm-.2746-14.0055c0-1.1494.8863-2.0811 1.9884-2.0811 1.1315 0 2.0499.9317 2.0499 2.0811 0 1.1173-.9184 2.0186-2.0499 2.0186-1.1021 0-1.9884-.9013-1.9884-2.0186zm10.3584 9.1918v4.8137c0 .9629-.7954 1.7706-1.745 1.7706-.9478 0-1.7138-.8077-1.7138-1.7706v-9.2856c0-.7451.6126-1.3662 1.3473-1.3662.7338 0 1.3161.6211 1.3161 1.3662 1.407-1.3037 2.6303-1.5215 3.793-1.5215 3.4578 0 4.9875 2.6085 4.9875 5.5588v5.2483c0 .9629-.7949 1.7706-1.7436 1.7706-.9488 0-1.7138-.8077-1.7138-1.7706v-4.8137c0-1.5215-.1837-2.795-2.3557-2.795-1.5301 0-2.173 1.2735-2.173 2.795zm19.2311 1.8331c-.398 0-.672-.1865-.887-.4356l-4.039-4.3781v7.7943c0 .9629-.796 1.7706-1.744 1.7706-.949 0-1.714-.8077-1.714-1.7706v-15.4333c.049-.13.138-.2416.253-.3196.115-.0779.251-.1184.391-.116.304 0 .549.2491.733.4356l6.426 7.2357c.183.2177.428.3418.551.3418.122 0 .366-.1241.55-.3409l6.426-7.2366c.184-.1865.428-.4356.734-.4356.305 0 .551.1866.643.4356v15.4333c0 .9629-.766 1.7706-1.714 1.7706-.949 0-1.744-.8077-1.744-1.7706v-7.7943l-4.039 4.3781c-.214.2491-.49.4356-.826.4356zm16.631 1.8009c1.56 0 2.876-1.3976 2.876-3.2922 0-1.8936-1.346-3.1368-2.876-3.1368s-2.754 1.2735-2.754 3.1368c0 1.8321 1.224 3.2922 2.754 3.2922zm3.672 1.584-.063-.4043c-.672 1.335-2.815 1.9259-4.191 1.9259-3.244 0-5.63-2.9504-5.63-6.429 0-3.4777 2.447-6.304 5.813-6.304.582 0 2.509.1553 4.008 1.9258l.062-.4043c0-.7451.581-1.3662 1.316-1.3662.734 0 1.345.6211 1.345 1.3662v9.6899c0 .7452-.611 1.3663-1.346 1.3663-.734 0-1.316-.6211-1.316-1.3663zm12.255-8.013h-.367c-2.173.125-2.601 1.3672-2.601 2.795v4.8137c0 .9629-.795 1.7706-1.744 1.7706s-1.714-.8077-1.714-1.7706v-9.2856c0-.7451.612-1.3662 1.347-1.3662s1.316.6211 1.316 1.3662c1.285-1.2109 2.325-1.459 3.396-1.5215h.336c.827 0 1.591.7139 1.591 1.6153 0 .8379-.734 1.5831-1.56 1.5831zm13.326 6.802c.154.2481.245.5274.245.8379 0 .9005-.826 1.7394-1.713 1.7394-.612 0-1.133-.4659-1.53-.963l-3.977-4.6271v3.8195c0 .9629-.796 1.7706-1.745 1.7706s-1.714-.8077-1.714-1.7706v-14.0983c0-.9639.765-1.7706 1.714-1.7706s1.744.8067 1.744 1.7706v8.7885l3.978-4.4103c.397-.4659.887-.9317 1.499-.9317.857 0 1.653.8076 1.653 1.7081 0 .2793-.062.5586-.215.8076l-3.151 3.4465 3.212 3.882zm6.78-6.7395c-.949 0-2.479.4971-2.479 1.9561h4.987c0-1.4903-1.591-1.9561-2.509-1.9561zm4.527 4.1613h-7.006c0 2.0811 1.988 2.3917 2.875 2.3917.644 0 1.562-.1241 2.265-.4356.214-.1543.581-.2793.887-.2793.765 0 1.407.6533 1.407 1.4297 0 .5274-.336.9933-.764 1.2413-1.071.7764-2.448.963-3.764.963-3.488 0-6.394-1.8937-6.394-6.2737 0-3.4465 1.774-6.4593 5.905-6.4593 3.335 0 5.874 2.1739 5.936 6.0559 0 .7452-.612 1.3663-1.347 1.3663zm9.625 5.3108h-.949c-2.632 0-4.161-1.1495-4.161-5.2796v-4.255h-.887c-.827 0-1.561-.7452-1.561-1.5831 0-.9014.734-1.6153 1.561-1.6153h.887v-3.2921c0-.963.765-1.7706 1.713-1.7706s1.745.8076 1.745 1.7706v3.2921h1.437c.826 0 1.561.7139 1.561 1.6153 0 .8379-.735 1.5831-1.561 1.5831h-1.437v3.5714c0 2.3605.122 2.8576 1.162 2.8576h.49c.825 0 1.529.6836 1.529 1.5528 0 .8388-.704 1.5528-1.529 1.5528zm16.753-16.491c.458.2793.857.9005.857 1.46 0 .9005-.765 1.6456-1.622 1.6456-.214 0-.429-.0615-.612-.124-1.01-.7452-2.295-1.2422-3.641-1.2422-3.182 0-5.386 2.6085-5.386 5.8381 0 3.2306 2.203 5.8079 5.386 5.8079 1.59 0 2.998-.6524 4.069-1.6456.277-.1989.608-.3074.949-.3106.857 0 1.529.6827 1.529 1.5528 0 .5586-.336 1.0557-.764 1.335-1.53 1.3048-3.611 2.174-5.753 2.174-4.895 0-8.873-4.0373-8.873-9.0063 0-4.9689 3.977-9.0062 8.873-9.0062 1.837 0 3.58.5586 4.988 1.5215zm8.768 13.3854c1.56 0 2.875-1.3976 2.875-3.2922 0-1.8936-1.346-3.1368-2.876-3.1368-1.529 0-2.754 1.2735-2.754 3.1368 0 1.8321 1.225 3.2922 2.754 3.2922zm3.67 1.584-.06-.4043c-.673 1.335-2.815 1.9259-4.193 1.9259-3.243 0-5.63-2.9504-5.63-6.429 0-3.4777 2.449-6.304 5.814-6.304.581 0 2.509.1553 4.009 1.9258l.06-.4043c0-.7451.582-1.3662 1.317-1.3662.733 0 1.346.6211 1.346 1.3662v9.6899c0 .7452-.613 1.3663-1.346 1.3663-.735 0-1.317-.6211-1.317-1.3663zm12.164-1.584c1.53 0 2.754-1.4601 2.754-3.2922 0-1.8633-1.224-3.1368-2.754-3.1368s-2.876 1.2422-2.876 3.1368 1.316 3.2922 2.876 3.2922zm-2.876 2.0811v4.4094c0 .9629-.795 1.7705-1.744 1.7705-.948 0-1.714-.8076-1.714-1.7705v-14.5964c0-.7451.613-1.3662 1.347-1.3662s1.317.6211 1.317 1.4903c1.283-1.335 2.875-1.6456 4.068-1.6456 3.366 0 5.814 2.8263 5.814 6.304 0 3.4786-2.386 6.429-5.63 6.429-1.01 0-2.509-.3106-3.458-1.0245z" fill="#fff" fill-rule="evenodd"/></g></g></svg>